<svg xmlns="http://www.w3.org/2000/svg" xmlns:xlink="http://www.w3.org/1999/xlink" width="237.38336mm" height="195.05948mm" viewBox="0 0 237.38336 195.05948">
  <g paint-order="fill markers stroke" transform="translate(9.4324455 -36.882691)">
    <circle cx="109.25924" cy="134.41243" r="94.883904" fill="none" stroke="#009b01" stroke-linecap="round" stroke-width="5.29167"/>
    <path fill="#009b01" d="M-9.4324455 109.84876h237.38336v49.127354h-237.38336z"/>
    <ellipse id="a" cx="109.25924" cy="134.41243" fill="none" fill-opacity="1" stroke="#009b01" stroke-dasharray="none" stroke-linecap="round" stroke-opacity="1" stroke-width="5.29167" opacity="1" rx="60.172321" ry="58.207226"/>
    <text xml:space="preserve" x="-5.0453806" y="148.51926" fill="#fff" stroke="#009b01" stroke-linecap="round" stroke-width="5.29167" font-family="FONTSPRING DEMO - Proxima Nova ExCn" font-size="38.8056" letter-spacing="2.23837" style="-inkscape-font-specification:&quot;FONTSPRING DEMO - Proxima Nova ExCn&quot;" word-spacing="0"><tspan x="-5.0453806" y="148.51926" stroke="none" font-family="AR" font-weight="400" style="-inkscape-font-specification:AR">CERTIFIED</tspan></text>
    <text xml:space="preserve" fill="#009b01" stroke-linecap="round" stroke-width="5.29167" font-family="AR" font-size="19.7556" font-weight="400" letter-spacing=".418042" style="-inkscape-font-specification:AR" transform="matrix(-.85473466 -.59051756 .59051756 -.85473466 125.62983 301.71961)" word-spacing="0"><textPath xlink:href="#a">CERTIFIED</textPath></text>
    <path fill="#009b01" d="m131.36402 319.12078.25479-1.91325q2.35776.31996 3.74117 1.70411 1.37272 1.37568 1.62622 3.57008.26235 2.27107-.49263 3.80514-.76568 1.5256-2.43294 2.47561-1.66838.94044-3.68071 1.1729-2.19441.2535-3.91975-.392-1.73604-.65397-2.75752-2.09935-1.03218-1.45385-1.24694-3.31287-.24353-2.10816.66367-3.66953.9072-1.56136 2.78715-2.35145l.64265 1.78045q-1.47676.66583-2.06891 1.67615-.59215 1.01032-.42942 2.41895.18708 1.61946 1.08946 2.6222.90128.99317 2.26501 1.28231 1.35415.29025 2.74362.12974 1.79194-.20701 3.07372-.87944 1.27109-.68091 1.80499-1.85929.53389-1.17838.38556-2.46244-.18044-1.56196-1.20629-2.54073-1.02585-.97877-2.8429-1.15729zm3.42787-6.88259-13.17251 5.1445-3.71976-9.52446 1.55446-.60709 3.03898 7.7813 4.03442-1.57563-2.84597-7.28711 1.54548-.60359 2.84596 7.28711 4.48369-1.75109-3.15829-8.08681 1.55447-.60709zm-6.19952-14.12208-11.45348 8.29449-3.67764-5.07829q-1.10895-1.53129-1.37355-2.55451-.27241-1.01756.16374-2.05993.43614-1.04237 1.38148-1.72697 1.21879-.88264 2.6262-.69894 1.40741.18369 2.8278 1.6681-.14659-.81093-.0916-1.32712.12847-1.1054.61256-2.36114l1.67452-4.24976 1.38053 1.90631-1.28526 3.24134q-.55036 1.41092-.78606 2.23668-.23571.82575-.20552 1.32793.0245.49437.1932.90818.13202.29743.55636.88339l1.27303 1.75786 5.0861-3.68329zm-7.49627 3.11815-2.35935-3.25791q-.7525-1.0391-1.38778-1.47229-.6431-.42754-1.33253-.39276-.69723.0404-1.25194.44215-.81252.58842-.90598 1.56127-.0991.96503.82313 2.23851l2.62527 3.62512zm-5.32218-18.02553-8.02096 9.5515 3.56797 2.99623-1.07319 1.27797-8.58379-7.20832 1.07318-1.27797 3.58274 3.00864 8.02095-9.55151zm-8.9354-6.43747-7.037672 12.26589-1.623181-.93132 7.037673-12.26589zm-6.61796-3.57101-4.759679 13.31639-8.983571-3.21099.561681-1.57144 7.221373 2.58113 1.474006-4.1239-6.24944-2.23374.56168-1.57144 6.249441 2.23373 2.162308-6.0496zm-13.914389-4.10633-2.331892 13.94787-1.845762-.30858 2.331891-13.94787zm-7.389677-1.08932.29572 14.13837-10.222831.21382-.0349-1.66844 8.351859-.17469-.09057-4.33024-7.82143.1636-.0347-1.6588 7.82143-.1636-.100657-4.81244-8.679762.18155-.0349-1.66845zm-15.370345.93637 3.884245 13.59755-4.684015 1.33803q-1.586072.45307-2.476487.49675-1.245522.0649-2.272388-.40425-1.335588-.60163-2.269661-1.86972-.940698-1.25617-1.460011-3.07412-.442475-1.54897-.422532-2.84882.01994-1.29984.360524-2.24986.343229-.94075.890496-1.58865.540641-.63598 1.429756-1.14077.87984-.50214 2.113451-.85453zm-1.341031 2.11863-2.903162.82931q-1.344915.38419-2.03395.85189-.69831.47034-1.02297 1.05466-.457175.82281-.502287 1.99943-.05174 1.18854.388087 2.72823.609398 2.13332 1.640214 3.07281 1.02419.95142 2.137201 1.05483.802959.0716 2.407581-.38678l2.856786-.81607z" aria-label="CERTIFIED" font-family="Arial" font-size="19.7556" letter-spacing="2.23837" style="-inkscape-font-specification:Arial" transform="rotate(145.2580264 136.44510699 270.64998952) scale(1.17699147)" word-spacing="0"/>
    <g fill="#009b01">
      <path d="m114.97392245 94.38472618 1.66315354 7.24219117-6.49800418-3.60435326-6.37378983 3.81971347 1.41994968-7.29377504-5.60237273-4.88147823 7.3755816-.90344825 2.91133323-6.83663293 3.13840974 6.7354139 7.40167588.6562067zM135.49861945 98.04529618l1.66315354 7.24219117-6.49800418-3.60435326-6.37378983 3.81971347 1.41994968-7.29377504-5.60237273-4.88147823 7.3755816-.90344825 2.91133323-6.83663293 3.13840974 6.7354139 7.40167588.6562067zM92.97498545 98.04529618l1.66315354 7.24219117-6.49800418-3.60435326-6.37378983 3.81971347 1.41994968-7.29377504-5.60237273-4.88147823 7.3755816-.90344825 2.91133323-6.83663293 3.13840974 6.7354139 7.40167588.6562067z"/>
    </g>
    <g fill="#009b01">
      <path d="m114.97392245 173.47878382 1.66315354-7.24219117-6.49800418 3.60435326-6.37378983-3.81971347 1.41994968 7.29377504-5.60237273 4.88147823 7.3755816.90344825 2.91133323 6.83663293 3.13840974-6.7354139 7.40167588-.6562067zM135.49861945 169.81821382l1.66315354-7.24219117-6.49800418 3.60435326-6.37378983-3.81971347 1.41994968 7.29377504-5.60237273 4.88147823 7.3755816.90344825 2.91133323 6.83663293 3.13840974-6.7354139 7.40167588-.6562067zM92.97498545 169.81821382l1.66315354-7.24219117-6.49800418 3.60435326-6.37378983-3.81971347 1.41994968 7.29377504-5.60237273 4.88147823 7.3755816.90344825 2.91133323 6.83663293 3.13840974-6.7354139 7.40167588-.6562067z"/>
    </g>
  </g>
</svg>
